<svg viewBox="0 0 64 64" xmlns="http://www.w3.org/2000/svg" xml:space="preserve" fill-rule="evenodd" clip-rule="evenodd" stroke-linejoin="round" stroke-miterlimit="2"><path fill="none" d="M0 0h64v64H0z"/><clipPath id="a"><path d="M0 0h64v64H0z"/></clipPath><g clip-path="url(#a)"><path d="M63.99963 8.00003c0-4.41527-3.585-8.00026-8.00026-8.00026H8.00017c-4.41526 0-8.00025 3.585-8.00025 8.00026v48.00036c0 4.41526 3.585 7.99909 8.00026 7.99909h47.9992c4.41525 0 8.00025-3.58383 8.00025-7.9991V8.00004Z" fill="#fff"/><path d="M54.96051 32.52737c.29776-.24343.34215-.68143.09892-.97893L40.2604 13.44669c-.24271-.29687-.6813-.34106-.97906-.09763l-2.84838 2.32869c-.29776.24343-.34163.68205-.09892.97893l14.79903 18.10174c.24323.2975.6813.34106.97907.09763l2.84837-2.32868Z" fill="#1e8b9e"/><path d="M54.96051 31.47274c.29776.24343.34215.68142.09892.97893L40.2604 50.5534c-.24271.29688-.6813.34106-.97906.09763l-2.84838-2.32868c-.29776-.24343-.34163-.68206-.09892-.97893l14.79903-18.10175c.24323-.2975.6813-.34106.97907-.09763l2.84837 2.32869Z" fill="#1e8b9e"/><path d="M9.03952 32.52737c-.29776-.24343-.34215-.68143-.09893-.97893l14.79904-18.10175c.2427-.29687.6813-.34106.97906-.09763l2.84838 2.32869c.29776.24343.34163.68205.09892.97893L12.86695 34.75842c-.24322.2975-.6813.34106-.97906.09763l-2.84837-2.32868Z" fill="#1e8b9e"/><path d="M9.03952 31.47274c-.29776.24343-.34215.68142-.09893.97893L23.73963 50.5534c.2427.29688.6813.34106.97906.09763l2.84838-2.32868c.29776-.24343.34163-.68206.09892-.97893L12.86695 29.24168c-.24322-.2975-.6813-.34106-.97906-.09763l-2.84837 2.32869Z" fill="#1e8b9e"/></g></svg>
