<svg viewBox="0 0 256 256" xmlns="http://www.w3.org/2000/svg" xml:space="preserve" fill-rule="evenodd" clip-rule="evenodd" stroke-linejoin="round" stroke-miterlimit="2"><path fill="none" d="M0 0h256v256H0z"/><path d="M126.24862 60.4709C62.41703 102.11712 60.47095 176.8468 46.45914 210.70867c-1.55687 3.89217-6.6167 7.39512-10.11965 8.17355-15.9579 3.11374-24.13145 10.50886-28.41284 16.34712l5.83826 3.89217c3.89217-5.83826 13.23338-13.23338 34.2511-15.56868 16.73633-1.94609 91.07677-8.17356 129.60926-56.04725C221.996 112.23676 221.996 41.01005 248.07354 16.8786c0 0-71.61593 10.50886-121.82492 43.5923Zm40.08935 14.79025c-14.01181 12.45494-26.07754 26.46676-36.5864 41.64622-10.89807 15.17946-19.85006 31.52658-29.58049 48.2629-4.6706 8.17356-9.73042 16.73634-15.56868 24.52068-5.83825 7.78434-13.23338 15.56868-22.57458 18.68241 7.78434-5.83825 12.45494-14.0118 16.73633-22.57458 4.28138-8.56278 7.78434-17.12555 11.6765-26.07754 7.39513-17.51477 16.34712-35.41875 27.63441-51.37664 2.72452-3.89217 5.83826-7.78434 8.952-11.67652 3.11373-3.50295 6.22747-7.39512 9.73042-11.28729 7.0059-7.0059 14.40103-13.6226 22.57459-19.46085 15.9579-11.2873 33.86188-20.23928 52.9335-24.90989-16.73632 10.50886-31.91579 21.79616-45.9276 34.2511Z" fill="#1e8b9e" fill-rule="nonzero"/></svg>